PathFileType	4	(X/Y/Z)	./resultDataOpenSim/trcMotMarkerGrf/sub10/qtm-01-01.trc
DataRate	CameraRate	NumFrames	NumMarkers	Units	OrigDataRate	OrigDataStartFrame	OrigNumFrames
250.000000	250.000000	13	24	m	250.000000	60	479
Frame#	Time	L.Toe.Tip			R.Toe.Tip			L.Ankle.Lat			R.Ankle.Lat			L.Ankle.Med			R.Ankle.Med			L.Heel			R.Heel			L.Knee.Lat			R.Knee.Lat			L.Knee.Med			R.Knee.Med			L.Thigh.Upper			R.Thigh.Upper			L.ASIS			R.ASIS			V.Sacral			L.Acromium			R.Acromium			C7			L.Elbow			R.Elbow			L.Wrist.Lat			R.Wrist.Lat
		X1	Y1	Z1	X2	Y2	Z2	X3	Y3	Z3	X4	Y4	Z4	X5	Y5	Z5	X6	Y6	Z6	X7	Y7	Z7	X8	Y8	Z8	X9	Y9	Z9	X10	Y10	Z10	X11	Y11	Z11	X12	Y12	Z12	X13	Y13	Z13	X14	Y14	Z14	X15	Y15	Z15	X16	Y16	Z16	X17	Y17	Z17	X18	Y18	Z18	X19	Y19	Z19	X20	Y20	Z20	X21	Y21	Z21	X22	Y22	Z22	X23	Y23	Z23	X24	Y24	Z24

60	0.236	-1.3400023	0.066147358	-0.11013012	-0.68647459	0.044612859	-0.01600576	-1.328026	0.20277341	-0.1501092	-0.82316557	0.046428289	0.031386154	-1.2940102	0.1962327	-0.073742061	-0.81562062	0.086456164	-0.047937047	-1.359667	0.25540073	-0.097712611	-0.87662593	0.026346229	-0.016986476	-1.0197785	0.410689	-0.19758138	-0.86136426	0.44584472	0.10618227	-0.99072347	0.37226061	-0.084931164	-0.88260229	0.44864346	-0.023814195	-0.98561397	0.78791655	-0.22763019	-0.91002183	0.86918113	0.14607833	-0.91835861	0.90326833	-0.18227961	-0.86037846	0.94694786	0.049704474	-1.0949362	0.93082261	-0.024249022	-0.96409855	1.3968775	-0.2004446	-0.98930407	1.3818088	0.12524885	-1.0609427	1.4208502	-0.043264626	-1.0210499	1.0471364	-0.25213142	-1.13326	1.0701029	0.13863873	-0.80960454	0.91196733	-0.22502726	-1.0957817	0.83994323	0.20723857
61	0.24	-1.3277705	0.067361144	-0.11119165	-0.6864136	0.044419451	-0.016348885	-1.3178731	0.20416685	-0.15004125	-0.82308451	0.046472279	0.031300035	-1.2833252	0.19782808	-0.073768804	-0.81544299	0.086425906	-0.048100087	-1.3505468	0.25638308	-0.097613815	-0.87663603	0.026367328	-0.016994119	-1.0092991	0.41076779	-0.19779985	-0.85934166	0.4460741	0.10616362	-0.98024028	0.37279186	-0.085023463	-0.88074477	0.44910556	-0.023907956	-0.9802228	0.78782002	-0.22735844	-0.9062881	0.86967345	0.14617445	-0.91363803	0.90359582	-0.18227022	-0.85568515	0.94764603	0.050188378	-1.089682	0.93132532	-0.024553318	-0.95917761	1.3973896	-0.20041561	-0.98374725	1.3822065	0.1253489	-1.0558785	1.4214289	-0.04299234	-1.0167063	1.0477423	-0.2522057	-1.1271464	1.0699086	0.1390603	-0.80556945	0.91191752	-0.22505387	-1.089029	0.83987798	0.20735154
62	0.244	-1.3150254	0.068376376	-0.11225783	-0.68634195	0.044227786	-0.016682451	-1.3075284	0.20536117	-0.1499547	-0.82300558	0.046521285	0.031197047	-1.2726492	0.19930296	-0.073752566	-0.81526591	0.086388708	-0.048284701	-1.3414538	0.25706366	-0.097510527	-0.87664815	0.026392148	-0.017011918	-0.99868553	0.41097176	-0.19795731	-0.85716522	0.44631374	0.10607602	-0.96973964	0.37344573	-0.085082357	-0.87878774	0.44960013	-0.024054428	-0.97490367	0.78775744	-0.22708778	-0.90250808	0.87018719	0.14628113	-0.90889917	0.90397994	-0.18225834	-0.85106851	0.94834906	0.050725611	-1.0844742	0.93183665	-0.024853193	-0.95425823	1.397904	-0.20039095	-0.97814388	1.3826617	0.1254365	-1.0508223	1.4220257	-0.04274379	-1.0123315	1.048353	-0.25227765	-1.1210302	1.0697044	0.1395015	-0.80180914	0.91184493	-0.22520228	-1.082182	0.83983083	0.20746924
63	0.248	-1.3018565	0.069215521	-0.11334224	-0.68625986	0.044030793	-0.016954163	-1.2970164	0.20638241	-0.14985278	-0.82294382	0.046580706	0.031075296	-1.2622803	0.20058483	-0.073638276	-0.81507243	0.086341389	-0.048490239	-1.3323529	0.25743594	-0.09739106	-0.87666138	0.026420669	-0.017052185	-0.98792939	0.41130878	-0.19808025	-0.85496356	0.44654749	0.10594954	-0.95924681	0.37420905	-0.085097987	-0.8767499	0.45009717	-0.024250395	-0.96965079	0.78775903	-0.22682567	-0.89864853	0.87071034	0.14641513	-0.90417387	0.9044456	-0.18226271	-0.84653066	0.94905444	0.051310011	-1.0793146	0.93235698	-0.025147739	-0.94935148	1.3984225	-0.20037826	-0.97257208	1.383131	0.12551471	-1.0457738	1.4226485	-0.042515789	-1.0078838	1.0489788	-0.25233495	-1.114909	1.069501	0.13996104	-0.7982337	0.91174012	-0.22544158	-1.0752422	0.83979449	0.20759141
64	0.252	-1.2883278	0.069909291	-0.11443439	-0.68618094	0.043833167	-0.017152484	-1.286358	0.20724425	-0.14973364	-0.82290925	0.046655392	0.030933054	-1.2519987	0.20167294	-0.073452431	-0.81487209	0.086285728	-0.048709293	-1.323216	0.25749334	-0.097246504	-0.87667686	0.02645178	-0.017117561	-0.97713736	0.41178824	-0.19819566	-0.85306061	0.44677039	0.10583377	-0.94875858	0.37507938	-0.085069275	-0.87461847	0.45057873	-0.024470151	-0.96447213	0.78785184	-0.22656212	-0.89469946	0.87123658	0.14658173	-0.89947459	0.90502175	-0.18228937	-0.84206822	0.9497554	0.051929868	-1.0742052	0.93288666	-0.02543605	-0.94445662	1.3989493	-0.20038045	-0.96708664	1.383587	0.1255824	-1.0407351	1.4232934	-0.042308932	-1.0033673	1.0496262	-0.25236572	-1.108781	1.069304	0.14043402	-0.79471614	0.9116057	-0.22571446	-1.0681992	0.83975792	0.20771158
65	0.256	-1.2744856	0.070485661	-0.11552051	-0.68611968	0.043643681	-0.017299989	-1.2755611	0.20794537	-0.14961087	-0.82290042	0.046745666	0.030768287	-1.2415418	0.2026004	-0.07324278	-0.81469207	0.0862281	-0.048931085	-1.3140176	0.25723806	-0.097078831	-0.87669701	0.026483326	-0.017201989	-0.96639853	0.41240212	-0.19831899	-0.85166412	0.44699266	0.10576563	-0.93826798	0.3760586	-0.084998857	-0.87228349	0.45104904	-0.024679533	-0.95939345	0.78806029	-0.22628606	-0.89066963	0.87177281	0.14678103	-0.89478843	0.90571844	-0.18233457	-0.83767444	0.95043713	0.05256811	-1.0691477	0.93342608	-0.025717233	-0.93956255	1.3994903	-0.20039209	-0.96168373	1.3840332	0.12563656	-1.0357096	1.4239527	-0.042127809	-0.99886321	1.050296	-0.25240105	-1.1026439	1.0691158	0.14092386	-0.79118305	0.91145358	-0.22598095	-1.0610155	0.83972031	0.20782005
66	0.26	-1.2603695	0.070956101	-0.1166028	-0.68608572	0.043468826	-0.017432236	-1.2646318	0.20847811	-0.14949717	-0.82290431	0.046848338	0.030586985	-1.2308895	0.20339458	-0.073037198	-0.81455408	0.086176027	-0.049145393	-1.3047287	0.2566848	-0.096900151	-0.87672304	0.026512891	-0.017294317	-0.95572285	0.4131273	-0.19844694	-0.85051934	0.44723159	0.10572044	-0.92777972	0.37714255	-0.084891667	-0.86971774	0.45150668	-0.024851637	-0.95443862	0.78840423	-0.22600353	-0.88657592	0.87231005	0.14700231	-0.89008118	0.90652373	-0.18238699	-0.83334242	0.9510877	0.053207918	-1.064144	0.93397559	-0.025990391	-0.93465751	1.4000491	-0.2004032	-0.95633937	1.3844851	0.12567507	-1.0307	1.4246212	-0.041979075	-0.99445632	1.0509891	-0.25248009	-1.0964917	1.0689384	0.14144124	-0.78762682	0.91129648	-0.22623009	-1.0536276	0.83969689	0.2079134
67	0.264	-1.2460084	0.071312886	-0.11769318	-0.68608222	0.043311768	-0.01757481	-1.2535905	0.20883812	-0.14937861	-0.82290679	0.046957555	0.03040643	-1.2201392	0.20407758	-0.072854777	-0.81445889	0.086134451	-0.049343913	-1.2953155	0.25585882	-0.096740897	-0.876753	0.026538039	-0.017383562	-0.94509511	0.41393724	-0.1985556	-0.84914173	0.4475032	0.10565061	-0.91730644	0.37831763	-0.084752692	-0.86711678	0.45192857	-0.024995097	-0.94959115	0.78889363	-0.22572949	-0.88243709	0.87281522	0.1472234	-0.88530214	0.90741856	-0.18242266	-0.82906851	0.95170609	0.053839663	-1.0591959	0.93453558	-0.026254605	-0.92973922	1.4006251	-0.20040394	-0.95104564	1.3849563	0.12570155	-1.0257064	1.4252973	-0.041865413	-0.9901548	1.0517044	-0.25259498	-1.0903236	1.0687727	0.14198755	-0.78407642	0.9111387	-0.22646776	-1.0459939	0.83970898	0.20801089
68	0.268	-1.2314214	0.071541351	-0.11879607	-0.68610449	0.043174388	-0.017730551	-1.2424584	0.20903478	-0.14923792	-0.8229006	0.047063472	0.030241972	-1.20938	0.20465729	-0.072706209	-0.81439279	0.086105031	-0.049520649	-1.2857435	0.25479211	-0.096664495	-0.87678151	0.026557562	-0.017463369	-0.93451113	0.41481467	-0.1986156	-0.84735188	0.44780644	0.10555183	-0.90685557	0.37956796	-0.08458256	-0.86466924	0.45230198	-0.025158307	-0.94477185	0.7895223	-0.22546208	-0.87827206	0.87325947	0.14742611	-0.88040962	0.90838956	-0.18241724	-0.82485037	0.95229793	0.05446001	-1.0543053	0.93510638	-0.026508879	-0.9248238	1.401216	-0.20038951	-0.94580538	1.385457	0.12572501	-1.0207265	1.4259819	-0.041782291	-0.98591506	1.0524394	-0.25272636	-1.0841589	1.0686143	0.14253156	-0.78057829	0.91097554	-0.22670943	-1.0381468	0.83976956	0.20815147
69	0.272	-1.2166313	0.071634746	-0.11990391	-0.68614089	0.043058263	-0.017880229	-1.2312343	0.20907572	-0.14908374	-0.82288271	0.04715424	0.030095052	-1.1985826	0.20510229	-0.072589246	-0.81434318	0.08608845	-0.049672481	-1.2759824	0.25351166	-0.096747333	-0.87680315	0.026573442	-0.017533899	-0.92397023	0.41575736	-0.19861641	-0.84534127	0.44811935	0.10544611	-0.89642239	0.38088857	-0.084377454	-0.86238334	0.45263903	-0.025372689	-0.9398808	0.79026787	-0.22517759	-0.87409835	0.87363075	0.14760813	-0.87542458	0.90942381	-0.18237702	-0.82068191	0.95286663	0.055063614	-1.0494738	0.93568833	-0.026752121	-0.91994811	1.4018233	-0.2003646	-0.94062082	1.3859926	0.12575377	-1.0157591	1.4266776	-0.041725241	-0.98170029	1.0531981	-0.25288324	-1.0780444	1.0684543	0.14299697	-0.77719219	0.91080119	-0.22697749	-1.0301894	0.83987703	0.20835236
70	0.276	-1.2016671	0.071598706	-0.12100957	-0.68617878	0.042962739	-0.017995859	-1.2198906	0.20892241	-0.14893861	-0.82285177	0.047221722	0.029958794	-1.1875862	0.20533684	-0.072494557	-0.81430492	0.086085766	-0.049798332	-1.2659955	0.2520254	-0.096989138	-0.87681575	0.026589469	-0.017599066	-0.91347359	0.41676937	-0.19856461	-0.84333258	0.44842269	0.10534149	-0.8859918	0.38228452	-0.084128874	-0.86026119	0.45294423	-0.025606159	-0.93488017	0.79110201	-0.22486134	-0.86993515	0.87391807	0.14777862	-0.87044698	0.91050126	-0.1823463	-0.81655705	0.95341282	0.055644368	-1.0447028	0.93628179	-0.026983279	-0.91515896	1.4024514	-0.200343	-0.93549845	1.3865602	0.12579241	-1.010805	1.4273879	-0.041692548	-0.97749461	1.0539882	-0.25306718	-1.0720333	1.0682831	0.14329478	-0.77396903	0.91061004	-0.22728726	-1.0222446	0.840017	0.20857882
71	0.28	-1.1865596	0.071446406	-0.12211609	-0.6862124	0.042883342	-0.018059166	-1.2083801	0.20848612	-0.1488234	-0.82281001	0.047266227	0.02982994	-1.1762764	0.20527312	-0.072408195	-0.8142788	0.086096851	-0.049898053	-1.2557454	0.25032855	-0.09729921	-0.87682041	0.02660758	-0.017660312	-0.90302953	0.41784981	-0.19846051	-0.84139828	0.44871354	0.10523484	-0.87554323	0.38375453	-0.083827356	-0.85839702	0.45320169	-0.025796353	-0.92982858	0.79200044	-0.22453525	-0.86580455	0.87411331	0.14795304	-0.86557308	0.91160774	-0.18236513	-0.81247702	0.95394027	0.056203711	-1.0399939	0.9368872	-0.027201794	-0.9104786	1.403101	-0.20034036	-0.9304529	1.3871529	0.12584389	-1.0058657	1.4281139	-0.041680017	-0.97329655	1.0548102	-0.25325961	-1.0661223	1.0680985	0.14343917	-0.77089163	0.91039209	-0.22763041	-1.0143839	0.84017155	0.20877677
72	0.284	-1.1713503	0.071194736	-0.12323175	-0.68624488	0.042814133	-0.018070652	-1.1966586	0.20769354	-0.1487536	-0.82276188	0.047296494	0.029712545	-1.1646842	0.20485976	-0.072317273	-0.81426958	0.086118924	-0.0499724	-1.2452352	0.24841894	-0.097628304	-0.87682024	0.026627441	-0.017714103	-0.89264443	0.4189908	-0.19829841	-0.83952119	0.44899429	0.1051264	-0.86507461	0.38528455	-0.083474387	-0.85680511	0.45340823	-0.02591632	-0.92483248	0.79294445	-0.22424852	-0.86172389	0.87422976	0.14815341	-0.86081246	0.91274632	-0.18242939	-0.80844474	0.95445228	0.056747543	-1.0353498	0.93750526	-0.027408248	-0.90585303	1.4037614	-0.20035891	-0.92548925	1.3877663	0.12590668	-1.0009428	1.4288533	-0.041681543	-0.96911331	1.0556589	-0.253453	-1.0602186	1.0679098	0.14360833	-0.76782808	0.91013875	-0.22797453	-1.0065868	0.84033495	0.20892357
